<mxfile host="app.diagrams.net" modified="2022-02-28T15:27:52.824Z" agent="5.0 (X11)" etag="_w-zFBeKf_pxbvXrDaDY" version="16.5.2" type="github">
  <diagram id="wSFIg2iRuYfdMrhpgIhj" name="Page-1">
    <mxGraphModel dx="1422" dy="820" grid="1" gridSize="10" guides="1" tooltips="1" connect="1" arrows="1" fold="1" page="1" pageScale="1" pageWidth="850" pageHeight="1100" math="0" shadow="0">
      <root>
        <mxCell id="0" />
        <mxCell id="1" parent="0" />
      </root>
    </mxGraphModel>
  </diagram>
</mxfile>
